<svg id="Camada_1" data-name="Camada 1" xmlns="http://www.w3.org/2000/svg" viewBox="0 0 380.19 157.99">
  <g>
    <path d="M336.48,357.21c-.48.2-1.34.64-2.58,1.3s-2.63,1.45-4.19,2.35-3.2,1.86-4.94,2.89-3.38,2-4.93,2.89L315.77,369c-1.16.67-1.94,1.1-2.34,1.3a3.34,3.34,0,0,0-1.08.6l-1.34,1-1.32.94a2,2,0,0,1-1,.45,3.32,3.32,0,0,1-2.24-.85,7.25,7.25,0,0,1-1.71-2.24,12.11,12.11,0,0,1-1.08-3.29,20.77,20.77,0,0,1-.36-3.89,12.94,12.94,0,0,1,1.38-6.48,10.59,10.59,0,0,1,3.26-3.64,10.86,10.86,0,0,1,3.92-1.65c1.36-.27,2.48-.5,3.36-.7a2,2,0,0,0,.71-.3c.36-.2.76-.43,1.2-.7a13.91,13.91,0,0,1,1.32-.69,2.77,2.77,0,0,1,1.08-.3c.71-.53,1.83-1.33,3.35-2.4s3.17-2.14,5-3.24a53.1,53.1,0,0,1,5.36-2.89,11.18,11.18,0,0,1,4.57-1.25,6.68,6.68,0,0,1,3.84,1.15,9.82,9.82,0,0,1,2.87,3.19,16.83,16.83,0,0,1,1.83,4.79,27.59,27.59,0,0,1,.62,6c0,.94,0,1.88-.12,2.85s-.22,2.14-.41,3.54a105,105,0,0,1-5.48,20.79,98,98,0,0,1-8.65,17.46,80.55,80.55,0,0,1-11,13.81A67.55,67.55,0,0,1,309,422.25l.06-.1a24.59,24.59,0,0,1-2.48,1.44c-1,.5-2,1-3.06,1.4a25.31,25.31,0,0,1-3.11,1.05,11.08,11.08,0,0,1-2.66.4,27.2,27.2,0,0,1-3.95-.25,19.67,19.67,0,0,1-2.73-.6,7.08,7.08,0,0,1-1.85-.85,13.92,13.92,0,0,1-1.35-1,34.15,34.15,0,0,1-6.26-6.23,37.8,37.8,0,0,1-4.88-8.43,53.56,53.56,0,0,1-3.17-10.62,66.41,66.41,0,0,1-1.14-12.72,87.3,87.3,0,0,1,1.44-15.41,139.89,139.89,0,0,1,3.95-16.21,168.46,168.46,0,0,1,5.9-16.16q3.38-8,7.33-15.31A157.12,157.12,0,0,1,299.27,309,110.88,110.88,0,0,1,307.8,298q2.58-2.89,5.54-5.89a60.11,60.11,0,0,1,6.08-5.38,35.87,35.87,0,0,1,6.31-3.94,14.37,14.37,0,0,1,6.26-1.55,10.76,10.76,0,0,1,4.85,1.2,14.53,14.53,0,0,1,4.31,3.34,17.17,17.17,0,0,1,3.11,5.24,18.85,18.85,0,0,1,1.2,6.88,24.93,24.93,0,0,1-.3,3.69q-.12.79-.48,2.79a12.06,12.06,0,0,1-.9,3.09l.12-.2q-.24,1.31-.81,1.5a3.58,3.58,0,0,1-1.16.2,3.86,3.86,0,0,1-3.06-1.5,26.25,26.25,0,0,1-2.33-3.24q-1.08-1.74-2.13-3.24a3,3,0,0,0-2.48-1.5h-1.62a32.56,32.56,0,0,0-9.94,6.34,85.83,85.83,0,0,0-10.5,11.27,129.16,129.16,0,0,0-10,14.81,139.48,139.48,0,0,0-8.44,17,120.2,120.2,0,0,0-5.84,17.8A73.92,73.92,0,0,0,283.38,384a32.44,32.44,0,0,0,1.86,11.62,39.07,39.07,0,0,0,5.38,9.52h-.06a21.08,21.08,0,0,0,4,3.39,8,8,0,0,0,4.28,1.4,9.87,9.87,0,0,0,4.7-1.4,32.79,32.79,0,0,0,5.09-3.49,60.43,60.43,0,0,0,5-4.59c1.62-1.66,3.08-3.19,4.4-4.59a62.5,62.5,0,0,0,10.72-16.35,129.86,129.86,0,0,0,7.18-19.65l.24-1a5.31,5.31,0,0,0,.18-.85Q336.42,357.51,336.48,357.21Z" transform="translate(-272.42 -275.92)"/>
    <path d="M382.33,423.64a68.37,68.37,0,0,1,.42-6.93,99.45,99.45,0,0,0,.42-10c-1.32,1.59-2.77,3.49-4.37,5.68s-3.25,4.29-5,6.29a38.81,38.81,0,0,1-5.12,5,7.76,7.76,0,0,1-4.75,2.05,6.94,6.94,0,0,1-3.42-.9,9,9,0,0,1-2.75-2.39,29.63,29.63,0,0,1-4.58-8.38,30.71,30.71,0,0,1-1.41-9.78,51.86,51.86,0,0,1,.27-5.18q.27-2.7.81-6.19a122,122,0,0,1,7.81-29.17,82.78,82.78,0,0,1,13.74-22.89,15,15,0,0,1,6.35-4.74,19.88,19.88,0,0,1,6.28-1.05,18,18,0,0,1,3.09.3c1.13.2,2.16.4,3.08.6a22.64,22.64,0,0,1,2.24-.7,8.34,8.34,0,0,1,1.83-.2,5.29,5.29,0,0,1,3,.8,5.85,5.85,0,0,1,1.92,2.14,10.47,10.47,0,0,1,1,3.1,19.48,19.48,0,0,1,.33,3.64,24.47,24.47,0,0,1-.48,4.93c-.31,1.57-.63,3.15-1,4.74L394.25,407c-.16,2.86-.3,5.48-.42,7.88a54.91,54.91,0,0,1-.72,6.68l-.45,2.24a11,11,0,0,1-.87,2.6,7.75,7.75,0,0,1-1.5,2.14,3.13,3.13,0,0,1-2.33.9,9.06,9.06,0,0,1-3-.4,3.78,3.78,0,0,1-1.71-1.15,3.88,3.88,0,0,1-.78-1.79A14.69,14.69,0,0,1,382.33,423.64Zm-19.87-30.12q-.24,1.39-.51,4a50.12,50.12,0,0,0-.27,5.19,22.13,22.13,0,0,0,.48,4.83c.32,1.43,1,2.15,2.09,2.15a7.14,7.14,0,0,0,4.7-1.85,25.42,25.42,0,0,0,4.1-4.43q2.58-3.5,5.24-7.83t5-9.13a95.75,95.75,0,0,0,4.19-9.83,55.87,55.87,0,0,0,2.66-10c.32-1.93.59-4.15.81-6.68s.33-4.79.33-6.78a9.13,9.13,0,0,0-.36-2.55c-.24-.83-.7-1.25-1.37-1.25a10.93,10.93,0,0,0-5.9,1.9,26.38,26.38,0,0,0-5.72,5.09,48.92,48.92,0,0,0-5.24,7.53,79.71,79.71,0,0,0-4.51,9.27,91.85,91.85,0,0,0-3.51,10.18A88.41,88.41,0,0,0,362.46,393.52Z" transform="translate(-272.42 -275.92)"/>
    <path d="M416,395.22q1.18-8.09,2.75-17.61T422,358.16q1.68-9.92,3.32-19.7t3-18.45q1.38-8.67,2.36-15.66t1.35-11.27l.66-8.08c.12-.6.25-1.26.39-2a10,10,0,0,1,.62-2.05,5.39,5.39,0,0,1,1.11-1.64,2.29,2.29,0,0,1,1.71-.7,4.58,4.58,0,0,1,3.11,1.09,7.72,7.72,0,0,1,2,3,16.77,16.77,0,0,1,1,4.24,40,40,0,0,1,.3,5c0,1.73-.08,3.48-.24,5.24s-.33,3.34-.53,4.74q-2,13.67-4.52,27.58t-4.58,28a77,77,0,0,1,5-7,45.38,45.38,0,0,1,5.66-5.88,27.92,27.92,0,0,1,6.08-4,14.21,14.21,0,0,1,6.22-1.5,10.05,10.05,0,0,1,5.69,1.6,12.48,12.48,0,0,1,3.95,4.34,21.62,21.62,0,0,1,2.31,6.53,43,43,0,0,1,.74,8.18c0,1.39-.05,2.84-.15,4.34s-.24,2.94-.44,4.34a104.06,104.06,0,0,1-4.4,18.55,90.08,90.08,0,0,1-6.47,14.61,71,71,0,0,1-7.84,11.37,97.51,97.51,0,0,1-8.53,8.83,27.27,27.27,0,0,1-5.42,3.84,11.06,11.06,0,0,1-5.12,1.34,6.88,6.88,0,0,1-3.74-.84,7.68,7.68,0,0,1-2.3-2.55q-.3,1-.75,2.1a11.65,11.65,0,0,1-1.08,2,5.69,5.69,0,0,1-1.5,1.55,3.32,3.32,0,0,1-1.94.6,5,5,0,0,1-4.85-2.85,17,17,0,0,1-1.44-7.63c0-1.13.05-2.27.15-3.44s.25-2.31.45-3.44Zm38.07-40.6A10.8,10.8,0,0,0,448,357,48,48,0,0,0,441.3,363a98.6,98.6,0,0,0-6.47,7.58q-3.1,4-5.5,7.23c-.48,2.73-1,5.35-1.44,7.88s-.95,5.09-1.41,7.68-.88,5.26-1.26,8-.7,5.62-1,8.68l-.36,3.89.36,1.79a12.7,12.7,0,0,1,2.3-1.79q1.05-.6,2-1.05l2.06-.95a16.65,16.65,0,0,0,2.4-1.39,52.53,52.53,0,0,0,15.77-16.86q6.38-10.58,8.71-26c.2-1.46.36-2.76.48-3.89a29.47,29.47,0,0,0,.18-3.09,8.42,8.42,0,0,0-1-4.49A3.42,3.42,0,0,0,454.11,354.62Z" transform="translate(-272.42 -275.92)"/>
    <path d="M479.37,417.66q.78-7,1.8-15.36t2.09-17q1.08-8.58,2.1-16.85t1.73-15.17q-.06-1-.06-1.74v-1.65q0-3.09.24-6.18t.66-5.69a16.8,16.8,0,0,1,1.47-5.13,2.8,2.8,0,0,1,2.6-1.35,3.55,3.55,0,0,1,2.78,1.15,8,8,0,0,1,1.65,3,19,19,0,0,1,.78,4.34q.18,2.44.18,5,0,1.39-.06,3.09c0,1.13-.06,2-.06,2.69,1.12-1.93,2.3-3.9,3.56-5.93a42.24,42.24,0,0,1,4-5.49,23.31,23.31,0,0,1,4.49-4,8.73,8.73,0,0,1,4.94-1.59,6.88,6.88,0,0,1,2,.29,14.13,14.13,0,0,1,2,.8,14.93,14.93,0,0,1,2.48,1.35,11,11,0,0,1,2.49,2.34,22,22,0,0,1,3.32,6.24,22.27,22.27,0,0,1,1.35,7.63,17.37,17.37,0,0,1-1.35,6.43,9.26,9.26,0,0,1-1.46,2.39,2.44,2.44,0,0,1-1.86.95,5.21,5.21,0,0,1-2.49-.85,7.41,7.41,0,0,1-2.42-2.24,8.76,8.76,0,0,1-.87-1.7q-.45-1.1-.84-2.19c-.26-.73-.5-1.41-.71-2.05a7.94,7.94,0,0,0-.51-1.24,3.2,3.2,0,0,0-.66-.15,5.42,5.42,0,0,0-.66-.05,8.4,8.4,0,0,0-5.81,2.59,33.38,33.38,0,0,0-5.14,6.33,70.86,70.86,0,0,0-4.4,8q-2,4.25-3.51,7.64-1.2,8.07-2.66,17.2t-2.9,19.1v2.5q0,3-.12,6.08a26.89,26.89,0,0,1-.72,5.48,7,7,0,0,1-1.89,2.55,4.23,4.23,0,0,1-2.84,1.05c-1.68,0-2.93-.92-3.77-2.75a15.27,15.27,0,0,1-1.26-6.43A21.19,21.19,0,0,1,479.37,417.66Z" transform="translate(-272.42 -275.92)"/>
    <path d="M530.25,409.68q.9-5.79,2.16-13.47T535.07,380q1.41-8.58,2.85-17.56T540.61,345a7.58,7.58,0,0,1,.42-1.35,8.76,8.76,0,0,1,1-1.89,6.25,6.25,0,0,1,1.67-1.65,4.11,4.11,0,0,1,2.4-.7,5.76,5.76,0,0,1,2,.35A4.79,4.79,0,0,1,551,342.6a7.25,7.25,0,0,1,.45,2.65v.64a4.23,4.23,0,0,1-.06.65l-1.68,10.58q-2.82,17.75-5.72,35.6t-5.65,35.81c-.09.4-.2.9-.36,1.5a10.79,10.79,0,0,1-.66,1.79,5.21,5.21,0,0,1-1,1.5,2,2,0,0,1-1.44.6,4.06,4.06,0,0,1-2.75-1.05,9.12,9.12,0,0,1-2-2.64,14,14,0,0,1-1.25-3.5,16.52,16.52,0,0,1-.42-3.59v-.89a3.85,3.85,0,0,1,.12-.9Zm15.63-103.23a47,47,0,0,1,1.08-5.09,13.68,13.68,0,0,1,2.75-5.39,11.43,11.43,0,0,1,2.33-1.64,5,5,0,0,1,2-.75,1.72,1.72,0,0,1,1.23.7,9.39,9.39,0,0,1,1.1,1.49,21.47,21.47,0,0,1,1.14,2.2,2.23,2.23,0,0,1,2,1.79,14.12,14.12,0,0,1,.45,3.79,21.27,21.27,0,0,1-.18,2.9c-.12.86-.22,1.56-.3,2.09a11.3,11.3,0,0,1-1.38,3.84,13.63,13.63,0,0,1-2.33,3,11,11,0,0,1-2.76,1.95,6,6,0,0,1-2.51.7,2.79,2.79,0,0,1-2.13-.8,13.15,13.15,0,0,1-1.88-3.39,8.59,8.59,0,0,1-.75-2.35,13.81,13.81,0,0,1-.09-1.44,18.81,18.81,0,0,1,.09-2C545.73,307.53,545.8,307,545.88,306.45Z" transform="translate(-272.42 -275.92)"/>
    <path d="M560.54,389.43a17.29,17.29,0,0,1,1.38-7.28,7.55,7.55,0,0,1,3.65-4q.66-2.19,2-5.93c.92-2.5,2-5.21,3.41-8.13s2.9-5.87,4.64-8.83a54.68,54.68,0,0,1,5.75-8.08,30.51,30.51,0,0,1,6.76-5.93,14.13,14.13,0,0,1,7.69-2.3,12.51,12.51,0,0,1,6,1.4,11.9,11.9,0,0,1,4.25,3.89,18.05,18.05,0,0,1,2.51,5.93,31.37,31.37,0,0,1,.84,7.43,37.64,37.64,0,0,1-.54,6.49,29.45,29.45,0,0,1-3.11,9.77,32.52,32.52,0,0,1-5.36,7.33,31.33,31.33,0,0,1-6.7,5.24,52.13,52.13,0,0,1-7.25,3.49,47.83,47.83,0,0,1-7,2.14c-2.23.5-4.17.89-5.81,1.15a33.25,33.25,0,0,0-.92,4.54,38,38,0,0,0-.39,5.34c0,3.85.92,6.85,2.75,9a9.51,9.51,0,0,0,7.6,3.19,14.13,14.13,0,0,0,5.39-1,23.8,23.8,0,0,0,4.88-2.7,38.29,38.29,0,0,0,4.34-3.59c1.36-1.29,2.59-2.57,3.71-3.84a43.94,43.94,0,0,1,4.1-4,5.73,5.73,0,0,1,3.44-1.64,1.8,1.8,0,0,1,1.92,1.24,8.31,8.31,0,0,1,.42,2.65c0,.53,0,1.05,0,1.54s-.05.92-.09,1.25a24.34,24.34,0,0,1-1.2,5.19,17.49,17.49,0,0,1-2.27,4.49q-6.23,8.18-12.78,11.67a29.39,29.39,0,0,1-14,3.49,22.47,22.47,0,0,1-3.38-.3,16.59,16.59,0,0,1-4-1.2,17,17,0,0,1-4.14-2.59,16.3,16.3,0,0,1-3.62-4.49,26.62,26.62,0,0,1-2.57-6.88,42.59,42.59,0,0,1-1-9.88,79.1,79.1,0,0,1,.78-10.47,2.64,2.64,0,0,1-1.47-1.35A6.55,6.55,0,0,1,560.54,389.43ZM598,361.8a3.84,3.84,0,0,0,.12-.89V360a5.91,5.91,0,0,0-1.2-4,3.72,3.72,0,0,0-2.87-1.35,7.73,7.73,0,0,0-5.18,2.3,29.07,29.07,0,0,0-4.79,5.73,51.48,51.48,0,0,0-4,7.38,61.08,61.08,0,0,0-2.69,7.13,37,37,0,0,0,7.9-1.94,24.18,24.18,0,0,0,6.25-3.39,18.61,18.61,0,0,0,4.31-4.59A14.19,14.19,0,0,0,598,361.8Z" transform="translate(-272.42 -275.92)"/>
    <path d="M640.22,291.19a64.19,64.19,0,0,1,1-7.39,22.53,22.53,0,0,1,1.77-5.63c.73-1.5,1.68-2.25,2.84-2.25a4.67,4.67,0,0,1,2.12.6,9,9,0,0,1,4,4.19,7.51,7.51,0,0,1,.72,3.29,11,11,0,0,1-.18,1.85q-.18,1-.3,2l-15,99.94c-.6,4-1.1,7.8-1.5,11.43s-.7,6.6-.9,8.92v2.4q0,3-.23,6.53a45.46,45.46,0,0,1-.9,6.58,17.85,17.85,0,0,1-1.83,5.09,3.45,3.45,0,0,1-3,2,4,4,0,0,1-2.82-1.14,9.12,9.12,0,0,1-2-2.95,16.79,16.79,0,0,1-1.14-3.84,22.15,22.15,0,0,1-.36-3.84q0-1.59.18-3.93t.45-4.89c.18-1.7.37-3.39.57-5.09s.4-3.17.6-4.44l15.44-102.13Q639.92,295.18,640.22,291.19Z" transform="translate(-272.42 -275.92)"/>
  </g>
</svg>
