<svg id="Camada_1" data-name="Camada 1" xmlns="http://www.w3.org/2000/svg" viewBox="0 0 740.24 712.82">
  <defs>
    <style>
      .cls-1 {
        fill: #feb8b8;
      }

      .cls-2 {
        fill: #ccc;
      }

      .cls-3 {
        fill: #2f2e41;
      }

      .cls-4 {
        fill: #cacaca;
      }

      .cls-5 {
        fill: #3f3d56;
      }

      .cls-6 {
        fill: #fff;
      }

      .cls-7 {
        fill: #e6e6e6;
      }

      .cls-8 {
        fill: #ff6584;
      }

      .cls-9 {
        fill: #6c63ff;
      }

      .cls-10 {
        fill: #f0f0f0;
      }
      
      #botao1{
        animation: moveTroco 1.5s ease-in-out infinite alternate;
      }

      #botao2{
        animation: moveTroco2 1.5s ease-in-out infinite alternate;
      }

      #braco{
        transform-box: fill-box;
        animation: moveBraco 1.5s ease-in-out infinite alternate;
      }

      @keyframes moveTroco{
        to{
          transform: translate(200px,0px);
        }
      }

      @keyframes moveTroco2{
        to{
          transform: translate(-200px,0px);
        }
      }

      @keyframes moveBraco{
        to{
          transform: rotateZ(-20deg);
        }
      }

    </style>
  </defs>
  <g id="b95fdd39-fb5a-4a72-9890-fbc16aea09e3">
    <g id="fe98ab94-e9cb-45d5-93d2-a323ca3f1bc1">
      <path id="af195c9f-bb19-4a02-bf73-25c746785d44-143" class="cls-1" d="M173.5,481.57a10.82,10.82,0,0,1-19.58-8.86l-41.8-85.9,20-12.13,36.11,91.23.4.17.4.19.4.2a2.46,2.46,0,0,1,.39.22,10.83,10.83,0,0,1,3.68,14.87Z" transform="translate(0 0)"/>
      <path id="b7be7d01-601a-466d-ae41-9577dbbca8ac-144" class="cls-2" d="M120.1,419.93l29.7-7.61s-1-2.19-2.55-5.82-3.78-8.7-6.25-14.45-5.23-12.17-7.91-18.53-5.3-12.62-7.5-18.06-4.7-8.7-7.21-10.52A9.93,9.93,0,0,0,111.1,343a14.12,14.12,0,0,0-5.63,2.15,15.22,15.22,0,0,0-2.27,1.72l-6.88,12.52Z" transform="translate(0 0)"/>
      <path id="b3095e15-ab7d-4e65-96a4-41698fa4f221-145" class="cls-1" d="M90.58,651.28l18.18-.07L102.9,698.7l-12.32.06Z" transform="translate(0 0)"/>
      <path id="a302ec2b-66fd-4123-9cb3-cd16e4233762-146" class="cls-3" d="M87.44,710.71l39.69-.21V710a15.41,15.41,0,0,0-.3-3,15.11,15.11,0,0,0-2.29-5.51,15.74,15.74,0,0,0-4.29-4.28,15.22,15.22,0,0,0-5.53-2.26,15.39,15.39,0,0,0-3-.28h0l-24.25.12Z" transform="translate(0 0)"/>
      <path id="aeeb1cd5-fa3a-4274-bafd-7f40084de8d2-147" class="cls-1" d="M148.78,651.05,166.9,651l-5.84,47.43-12.28.07Z" transform="translate(0 0)"/>
      <path id="ba1e98ed-d8f2-43c1-be39-19244e87f429-148" class="cls-3" d="M145.65,710.4l39.58-.2v-.5a15.41,15.41,0,0,0-.3-3,15.17,15.17,0,0,0-2.28-5.51,15.67,15.67,0,0,0-4.28-4.27,15.11,15.11,0,0,0-5.51-2.25,14.67,14.67,0,0,0-3-.28h0l-24.18.11Z" transform="translate(0 0)"/>
      <path id="a155f794-21b2-443d-9e35-67d51870e068-149" class="cls-3" d="M149.55,456.93,180,570.67l-11.16,109-24.7.68,5.38-98.45-30.82-49.12-6.68,148.24-22.41-1.59L77.18,552a145.18,145.18,0,0,1-9.26-31,138.63,138.63,0,0,1-2.19-25.32,119,119,0,0,1,1.32-17.07,60.2,60.2,0,0,1,1.23-6.26l9.09-9.21Z" transform="translate(0 0)"/>
      <path id="fa92fe00-8265-4df9-92a2-5e4b8684f88d-150" class="cls-2" d="M109.17,476c5.12,0,9.93-.17,14.3-.49a108.07,108.07,0,0,0,13.27-1.75,47.24,47.24,0,0,0,10.82-3.4,17.55,17.55,0,0,0,7-5.54l.21-.3-8.33-54.22-9-60.95a16.6,16.6,0,0,0-17-14.2L92.39,336a15.76,15.76,0,0,0-15.28,16.24c0,.16,0,.32,0,.48l3.7,60.62L67.2,473.11l1,.13c.39.06,1.88.25,4.22.52,3.06.34,6.19.65,9.29.92,4.39.38,8.69.67,12.77.88C99.62,475.83,104.59,476,109.17,476Z" transform="translate(0 0)"/>
      <path id="a02ac6ff-2f2c-46ae-a320-a92bb579f594-151" class="cls-3" d="M124.78,324.34h0a4.5,4.5,0,0,0,4.49-4.5V294.76a33.42,33.42,0,0,0-2.64-13.09,34.08,34.08,0,0,0-17.9-18A33.55,33.55,0,0,0,62,294.46v25.12a4.47,4.47,0,0,0,.36,1.76,4.59,4.59,0,0,0,4.17,2.78l58.26.22Z" transform="translate(0 0)"/>
      <path id="a9c6a018-88fd-40d4-8b44-5495c2df83a6-152" class="cls-1" d="M80.45,286.15A24.73,24.73,0,0,0,109,321.77,24.43,24.43,0,0,0,123.74,310a24.72,24.72,0,0,0-28.57-35.6,24.43,24.43,0,0,0-14.72,11.76Z" transform="translate(0 0)"/>
      <path id="a5ddc204-0839-488c-806a-2c44d9da4652-153" class="cls-3" d="M137.25,296.8a26.62,26.62,0,0,0-2.09-10.35,26.76,26.76,0,0,0-24.5-16.37l-5,0h-.17A26.47,26.47,0,0,0,79,296.55v.5l10.62,0L93.26,287,94,297.11l5.49,0,1.82-5.1.37,5.11,35.59.16Z" transform="translate(0 0)"/>
      <path id="braco" class="cls-1" d="M180,349.56a11.67,11.67,0,0,1,4.48,2.2,11.32,11.32,0,0,1,2.6,2.92,11.9,11.9,0,0,1,1.71,7.39,11.29,11.29,0,0,1-1.05,3.76,11.53,11.53,0,0,1-15.34,5.52,11,11,0,0,1-1.21-.67,2.23,2.23,0,0,1-.3-.2,2.73,2.73,0,0,1-.3-.21l-.28-.21-.28-.22-58.6,20.85a8.82,8.82,0,0,1-10.13-3.16l-13.9-19.24L104.21,357,113,367l53.63-10.67.18-.41.2-.41.22-.41.23-.4A11.53,11.53,0,0,1,180,349.56Z" transform="translate(0 0)"/>
      <path id="ea3ff0db-56f9-49fe-a255-68dfaf7efedd-155" class="cls-2" d="M112.08,360.68c-1.76-2.19-4.2-5-6.7-7.85s-5-5.61-6.92-7.7-3.19-3.47-3.19-3.47a13.81,13.81,0,0,0-25.09,10.19,13.58,13.58,0,0,0,2.06,5s1.91,2.5,4.8,6.24,6.75,8.71,10.64,13.65,7.83,9.86,10.86,13.49,5.17,6,5.47,5.77l10.58-31.44C114.89,364.4,113.83,362.86,112.08,360.68Z" transform="translate(0 0)"/>
      <path id="a9611ebe-3bd3-473e-9d8d-437c05f39574-156" class="cls-3" d="M105.8,323.54a4.46,4.46,0,0,1-.19,2.43,4.29,4.29,0,0,1-.59,1.12,4.6,4.6,0,0,1-.74.79,4.47,4.47,0,0,1-2.91,1.06H101l-.2,0a1.2,1.2,0,0,1-.2,0l-3.77-.68-5.19-11.09v10.16l-17.14-3.09V281l28.73.14-.71.83A19.66,19.66,0,0,0,98,291.73a32.27,32.27,0,0,0,.2,11,58.38,58.38,0,0,0,3.06,10.7,85.17,85.17,0,0,0,4.09,9A4.51,4.51,0,0,1,105.8,323.54Z" transform="translate(0 0)"/>
    </g>
    <path id="b86d4de9-0cff-4c8a-ba1d-90db5f791b61-157" class="cls-4" d="M739.15,712.82H0v-2.11H740.25Z" transform="translate(0 0)"/>
    <path id="a91d7220-8c5a-4469-a964-f9fb6eeff2ab-158" class="cls-5" d="M543.24,168.89h-3.9v-107A61.92,61.92,0,0,0,477.42,0H250.77a61.92,61.92,0,0,0-61.92,61.91V648.8a61.91,61.91,0,0,0,61.92,61.91H477.42a61.91,61.91,0,0,0,61.91-61.91V245h3.9Z" transform="translate(0 0)"/>
    <path id="bf5182e6-9a46-4ce3-a6bb-8e5b95c0b95d-159" class="cls-6" d="M526.71,57.77V652.94a47,47,0,0,1-46.94,47H248.47a47,47,0,0,1-47-47V57.77a47,47,0,0,1,47-46.95h28.06a22.34,22.34,0,0,0,20.66,30.74H429.05A22.32,22.32,0,0,0,449.7,10.82h30.06a47,47,0,0,1,47,46.94Z" transform="translate(0 0)"/>
    <path id="befb231b-3654-4dfe-ba25-bde2f69c3c75-160" class="cls-2" d="M366.58,295.87a99.3,99.3,0,0,1-99.34-99.25v-.09c0-.21,0-.43,0-.63.3-54.4,44.87-98.7,99.33-98.7a99.34,99.34,0,0,1,0,198.67Zm0-196.58A97.45,97.45,0,0,0,269.35,196c0,.23,0,.4,0,.57a97.26,97.26,0,1,0,97.27-97.24h0Z" transform="translate(0 0)"/>
    <path id="fe627b68-f6c4-4b39-818a-896f79516f98-161" class="cls-7" d="M469.3,400.32H263.76a3.81,3.81,0,0,1-3.8-3.81v-51a3.81,3.81,0,0,1,3.8-3.81H469.3a3.82,3.82,0,0,1,3.81,3.81v51a3.82,3.82,0,0,1-3.81,3.81ZM263.76,343.24a2.29,2.29,0,0,0-2.28,2.29v51a2.29,2.29,0,0,0,2.28,2.29H469.3a2.31,2.31,0,0,0,2.29-2.29v-51a2.3,2.3,0,0,0-2.29-2.29Z" transform="translate(0 0)"/>
    <circle id="efff077a-6dff-49bd-9bfe-dfa54dc61d00" class="cls-2" cx="290.41" cy="371.02" r="15.99"/>
    <path id="e513cc1a-fc4f-42ad-8a97-aa208a4af049-162" class="cls-7" d="M327.33,360.36a2.67,2.67,0,1,0,0,5.33h125.6a2.67,2.67,0,0,0,.21-5.33H327.33Z" transform="translate(0 0)"/>
    <path id="bb8a7882-db95-48e4-aaaf-3489ee3aa336-163" class="cls-7" d="M327.33,376.35a2.67,2.67,0,1,0,0,5.33h125.6a2.67,2.67,0,0,0,.21-5.33H327.33Z" transform="translate(0 0)"/>
    <path id="af101daf-449f-4d16-aa98-172f4a8df39f-164" class="cls-7" d="M469.3,485.58H263.76a3.81,3.81,0,0,1-3.8-3.81v-51a3.81,3.81,0,0,1,3.8-3.81H469.3a3.82,3.82,0,0,1,3.81,3.81v51A3.83,3.83,0,0,1,469.3,485.58ZM263.76,428.5a2.29,2.29,0,0,0-2.28,2.29v51a2.28,2.28,0,0,0,2.28,2.28H469.3a2.29,2.29,0,0,0,2.29-2.28v-51a2.3,2.3,0,0,0-2.29-2.29Z" transform="translate(0 0)"/>
    <circle id="a7593987-c694-475c-8cff-40adb8bae00c" class="cls-2" cx="290.41" cy="456.28" r="15.99"/>
    <path id="ad8313dd-202d-4f4d-8eaf-20c5dd40192b-165" class="cls-7" d="M327.33,445.62a2.67,2.67,0,0,0,0,5.33h125.6a2.67,2.67,0,0,0,.09-5.33Z" transform="translate(0 0)"/>
    <path id="bde7542a-4575-40bb-a917-747fdde14d1d-166" class="cls-7" d="M327.33,461.61a2.66,2.66,0,1,0,0,5.32h125.6a2.66,2.66,0,0,0,.09-5.32Z" transform="translate(0 0)"/>
    <path id="a41ae643-d6fa-4218-bc02-a84cd2f042d5-167" class="cls-7" d="M469.3,570.83H263.76A3.8,3.8,0,0,1,260,567V516a3.8,3.8,0,0,1,3.8-3.8H469.3a3.81,3.81,0,0,1,3.81,3.8v51a3.82,3.82,0,0,1-3.81,3.81ZM263.76,513.76a2.28,2.28,0,0,0-2.28,2.28v51a2.28,2.28,0,0,0,2.28,2.28H469.3a2.29,2.29,0,0,0,2.29-2.28V516a2.29,2.29,0,0,0-2.29-2.28Z" transform="translate(0 0)"/>
    <circle id="eb2f5380-5bf4-43e0-97aa-e300553d76c9" class="cls-2" cx="290.41" cy="541.54" r="15.99"/>
    <path id="ef612e73-fc19-47d8-a2d1-12e834e71e5a-168" class="cls-7" d="M327.33,530.88a2.67,2.67,0,0,0,0,5.33h125.6a2.67,2.67,0,0,0,.21-5.33H327.33Z" transform="translate(0 0)"/>
    <path id="ad1dc7cf-bcbc-43ff-98c3-5442d39a009f-169" class="cls-7" d="M327.33,546.86a2.67,2.67,0,0,0,0,5.33h125.6a2.66,2.66,0,1,0,.21-5.32H327.33Z" transform="translate(0 0)"/>
    <path id="botao1" class="cls-8" d="M243.37,432.47h37.89c2.37-17.48-2.86-33.81,0-45.47H243.37Q232.68,409.74,243.37,432.47Z" transform="translate(0 0)"/>
    <path id="botao2" class="cls-9" d="M489.38,520.22H451.49c1.42-17.48,6-33.81,0-45.47h37.89Q500.08,497.49,489.38,520.22Z" transform="translate(0 0)"/>
    <path id="b809e61f-e113-4687-852e-0d1aa1d72eef-173" class="cls-9" d="M417.35,282.22A94.2,94.2,0,0,1,314.75,279,38.67,38.67,0,0,1,349.65,257H381.1a38.64,38.64,0,0,1,36.25,25.26Z" transform="translate(0 0)"/>
    <g id="b4b23dfd-a70a-4bfa-a0ec-e0b9fbca8bb1">
      <path id="f2763f3e-78f9-4b43-a903-a3fe53ad4a45-174" class="cls-3" d="M323.67,191c4.76-15.16,15.58-29.07,30.54-34.2s41.07-.34,48.13,13.89c10.16,20.51,5.6,45.62.2,67.89-2.81-.15-5.65-.27-8.5-.37l-4-13.42v13.28c-22.22-.68-45.35-.25-68.49.19C319.46,222.52,318.91,206.18,323.67,191Z" transform="translate(0 0)"/>
      <circle id="eecf4506-21ab-40dd-8b32-4db21377c650" class="cls-1" cx="356.27" cy="205.76" r="34.07"/>
      <path id="bb1dea60-cbdf-449a-8984-6a3a37f92790-175" class="cls-3" d="M334.05,164.72a40.3,40.3,0,0,1,61.28,35.18c-17.94.82-36.78,1-55.89,1.07l-4.52-11.05L332.26,201l-17.5,0A41.15,41.15,0,0,1,334.05,164.72Z" transform="translate(0 0)"/>
    </g>
    <path id="a34394a5-3b6f-4dbd-b680-62200c75c4a0-176" class="cls-10" d="M674.28,680.65a106,106,0,0,1-5,29.4c-.06.22-.14.44-.21.66H650.56q0-.3.06-.66c1.23-14.21,8.36-100.71-.16-115.51C651.21,595.74,675.72,635.49,674.28,680.65Z" transform="translate(0 0)"/>
    <path id="a4311caa-1619-4625-9a30-9ee577173a6d-177" class="cls-10" d="M671.31,709.33c-.33.47-.66.93-1,1.38H641.21c.22-.39.48-.85.77-1.38,4.81-8.67,19-34.6,32.24-61.48,14.19-28.89,27.2-58.88,26.11-69.73C700.66,580.57,710.48,655.18,671.31,709.33Z" transform="translate(0 0)"/>
  </g>
</svg>
