<svg id="Camada_1" data-name="Camada 1" xmlns="http://www.w3.org/2000/svg" viewBox="0 0 552.5 114.42">
  <g>
    <path d="M219.78,346.87,207,367.66l14.13,19.67q1.73,2.43,3.35,4.3l1.59,1.93q1.83,2,7.5,2.74a23.06,23.06,0,0,1,.41,3.55,16.1,16.1,0,0,1-1.35,7.06,4.28,4.28,0,0,1-4,2.77q-3.45,0-9.2-7.72l-13.12-17.68q-4.47-6.15-6.56-7.84-1.53.81-2.47,21a60,60,0,0,1-1.42,11.73c-.68,2.47-1.79,3.71-3.35,3.71a3.28,3.28,0,0,1-3-2.15,12.72,12.72,0,0,1-1-5.57,38.59,38.59,0,0,1,.34-4.24q.78-6.09,2.77-43.32,1.8-31.38,3-36c.8-3.1,2-4.64,3.73-4.64q4.26,0,4.26,8.71-2.13,16.07-3.07,36.92a82.68,82.68,0,0,0,6.9-10.9c.54-1,1.21-2.2,2-3.61q2.36-4.11,5-8.84a46.62,46.62,0,0,0,3.82-8.71,68.82,68.82,0,0,1,2.8-8.06c.73-1.56,1.5-2.34,2.34-2.34s2,.87,3.16,2.62a10.31,10.31,0,0,1,1.74,5.85,23,23,0,0,1-1.82,7.25A67.12,67.12,0,0,1,219.78,346.87Z" transform="translate(-188.46 -298.44)"/>
    <path d="M262.39,387q-8.9,21.6-17.18,21.6-3,0-5.24-4.42a25.17,25.17,0,0,1-2.2-11.26q0-16.5,8-35.14t16.1-18.65q4.13,0,5.41,7.66,3.89,0,3.89,5.48,0,2.61-.75,9.46-1.35,12.83-1.35,20.48a72.25,72.25,0,0,0,.59,11.2c.39,2.16.68,3.57.86,4.24a4.49,4.49,0,0,0,1.63,2.11,4.16,4.16,0,0,1,1.35,3.3,8.09,8.09,0,0,1-1.74,5.3,4.83,4.83,0,0,1-3.64,2.11Q261.74,410.49,262.39,387Zm-2-34.55q-3.42,0-8.88,13.92T246,390c0,3.4.38,5.11,1.15,5.11q4,0,9.82-13.05t5.84-22.81a13.32,13.32,0,0,0-.76-4.95C261.56,353.09,261,352.47,260.36,352.47Z" transform="translate(-188.46 -298.44)"/>
    <path d="M295.66,392.06q-.14-3.36-5.81-8.21-7-6.17-8.9-10.62a24.14,24.14,0,0,1-1.93-9.68,29.58,29.58,0,0,1,6.72-19.26q6.7-8.25,12.53-8.25t5.71,9.15a7.61,7.61,0,0,1-1.3,4.36c-.87,1.28-1.61,1.93-2.22,1.93-.24,0-.68-.29-1.31-.87a2.74,2.74,0,0,0-1.46-.88c-2,0-4.21,1.25-6.63,3.74a12.12,12.12,0,0,0-3.61,8.71,9.37,9.37,0,0,0,1.28,4.7,24.53,24.53,0,0,0,5.24,5.7q5.85,5.1,7.71,9.21a21.79,21.79,0,0,1,1.86,9.09A19.62,19.62,0,0,1,296.86,406a21.71,21.71,0,0,1-15,6.07q-6.14,0-6.13-8.15a9.62,9.62,0,0,1,1.29-5.11c.86-1.41,1.81-2.12,2.87-2.12a4.49,4.49,0,0,1,2,.88,4.49,4.49,0,0,0,2.5.93,14,14,0,0,0,6.66-1.87A9.4,9.4,0,0,0,295.66,392.06Z" transform="translate(-188.46 -298.44)"/>
    <path d="M311.39,366.54v.06q1.08-11.33,1.08-12.94a23.46,23.46,0,0,1,1.1-7.72q1.1-3.12,3.06-3.12a4,4,0,0,1,3.58,2,8.07,8.07,0,0,1,1.29,4.48,83.73,83.73,0,0,1-1.25,10.27l-.21,1.37a197.11,197.11,0,0,0-2.23,19.61q-.37,7.59-.37,12.26a97,97,0,0,0,.71,10.15c.07.75.1,1.37.1,1.87a8.27,8.27,0,0,1-1.47,3.86c-1,1.61-2,2.42-3.16,2.42q-4.47,0-4.46-12.45a249.3,249.3,0,0,1,1.62-25.77C311,370.65,311.21,368.53,311.39,366.54Zm16.33-51.17a13.91,13.91,0,0,1-2.16,7.75q-2.18,3.33-3.76,3.33c-1.35,0-2.55-1-3.6-3.11a13.66,13.66,0,0,1-1.57-6.23,14.85,14.85,0,0,1,1.55-7.25,4.9,4.9,0,0,1,4.47-2.77,4.17,4.17,0,0,1,3.67,2.46A11.61,11.61,0,0,1,327.72,315.37Z" transform="translate(-188.46 -298.44)"/>
    <path d="M352,387q-8.9,21.6-17.18,21.6-3,0-5.25-4.42a25.32,25.32,0,0,1-2.19-11.26q0-16.5,8-35.14t16.09-18.65q4.13,0,5.41,7.66c2.6,0,3.89,1.83,3.89,5.48,0,1.74-.24,4.89-.74,9.46q-1.35,12.83-1.35,20.48a71,71,0,0,0,.59,11.2c.39,2.16.68,3.57.86,4.24a4.53,4.53,0,0,0,1.62,2.11,4.13,4.13,0,0,1,1.36,3.3,8.09,8.09,0,0,1-1.74,5.3,4.85,4.85,0,0,1-3.64,2.11Q351.39,410.49,352,387Zm-2-34.55q-3.42,0-8.88,13.92T335.67,390c0,3.4.38,5.11,1.15,5.11q4,0,9.82-13.05t5.83-22.81a13.12,13.12,0,0,0-.76-4.95C351.21,353.09,350.64,352.47,350,352.47Z" transform="translate(-188.46 -298.44)"/>
    <path d="M408.75,379.68q-.86,14.44-.85,23.15a15.66,15.66,0,0,1-1.12,6.11c-.74,1.78-1.75,2.67-3,2.67q-4.15,0-4.16-8.9,0-4.92,2-33.24,1.59-22.91,1.59-27.33a35.36,35.36,0,0,0-.23-5.73q-2.2-2.06-2.2-7.41t9.16-9.11Q419,316,425.55,316a14.66,14.66,0,0,1,12.18,5.79q4.53,5.79,4.53,15.63a39.54,39.54,0,0,1-8.32,24.93,45.7,45.7,0,0,1-20.22,15.22A38.14,38.14,0,0,0,408.75,379.68Zm3-46.75-2,32.74a39.71,39.71,0,0,0,17.11-10.61q7.38-7.63,7.37-16.34,0-10.39-8.92-10.4Q419.13,328.32,411.76,332.93Z" transform="translate(-188.46 -298.44)"/>
    <path d="M476.14,376.32q-2.26,14.56-8.6,24.55t-12.67,10q-5,0-8.25-6.76t-3.25-16.59a87.79,87.79,0,0,1,6-31.62q5.94-15.57,14.44-15.57,5.78,0,9.36,7.88A45,45,0,0,1,476.72,367a72.55,72.55,0,0,1-.58,9.27Zm-17.58-19.68q-2.37,3.87-4.64,12.33a65.47,65.47,0,0,0-2.26,17,29.52,29.52,0,0,0,1,8.53q1,3.36,2.72,3.36,4.2,0,8.73-9.15a45.64,45.64,0,0,0,4.53-20.54,32,32,0,0,0-1.47-10.55q-1.47-4.14-4.11-4.14t-4.5,3.17Z" transform="translate(-188.46 -298.44)"/>
    <path d="M499.14,392.06q-.13-3.36-5.82-8.21-7-6.17-8.89-10.62a24,24,0,0,1-1.93-9.68,29.63,29.63,0,0,1,6.71-19.26q6.72-8.25,12.53-8.25t5.72,9.15a7.62,7.62,0,0,1-1.31,4.36c-.86,1.28-1.6,1.93-2.21,1.93q-.37,0-1.32-.87a2.72,2.72,0,0,0-1.45-.88q-3,0-6.63,3.74a12.13,12.13,0,0,0-3.62,8.71,9.38,9.38,0,0,0,1.29,4.7,24.3,24.3,0,0,0,5.24,5.7q5.85,5.1,7.71,9.21a21.79,21.79,0,0,1,1.86,9.09A19.65,19.65,0,0,1,500.34,406a21.72,21.72,0,0,1-15,6.07q-6.12,0-6.12-8.15a9.71,9.71,0,0,1,1.28-5.11c.86-1.41,1.82-2.12,2.88-2.12a4.46,4.46,0,0,1,2,.88,4.54,4.54,0,0,0,2.51.93,14,14,0,0,0,6.66-1.87A9.48,9.48,0,0,0,499.14,392.06Z" transform="translate(-188.46 -298.44)"/>
    <path d="M543.84,355.9h0l-.07.12q-2,2-3.18,3.49-2.26,2.81-4.56,6a56.2,56.2,0,0,0-4,6.28A8,8,0,0,0,531,375q0,1.11,4,8.74a105.86,105.86,0,0,0,6.27,10.93c1.55,2.2,3.07,3.3,4.59,3.3l1.48-.07a1.47,1.47,0,0,1,1.3.91,5.76,5.76,0,0,1,.5,2.7,13.32,13.32,0,0,1-1.73,5.92,6.1,6.1,0,0,1-5.92,3.36q-2.46,0-5-3.33t-7.78-15q-4.2-9.4-4.57-9.4c-.15,0-.63.74-1.42,2.24a22.52,22.52,0,0,0-1.55,3.42v.06a128,128,0,0,0-.58,13.51,15,15,0,0,1-1.33,6.79c-.89,1.74-2,2.61-3.26,2.61a3.43,3.43,0,0,1-3.12-2.08,8.87,8.87,0,0,1-1.11-4.21q0-2.24.84-9.83,1.63-14.76,2.74-39.16,1.08-19.49,1.9-30.41t1.45-14.31a14.5,14.5,0,0,1,2-5.42c.9-1.35,1.87-2,2.9-2s1.79.75,2.39,2.27a15,15,0,0,1,.89,5.51q0,4.05-2.84,31.62l-.81,8.16h0q-1.5,18-1.53,20.79l10.39-17.31q7.93-14.13,11.66-14.13c2.39,0,3.59,1.77,3.59,5.29Q547.33,353,543.84,355.9Z" transform="translate(-188.46 -298.44)"/>
    <path d="M561.73,377l.58-2q4.1-15.13,8.81-24.56t9.21-9.43q3.45,0,5.63,3.49a15.21,15.21,0,0,1,2.18,8.27,15.63,15.63,0,0,1-.74,5.14c-.5,1.43-1.18,2.15-2.06,2.15q-2.1,0-3.82-3.18c-.82-1.37-1.46-2.05-1.93-2.05q-2.54,0-8.49,14.5A103.77,103.77,0,0,0,563.93,402q-.37,5.24-1.66,7.32a3.91,3.91,0,0,1-3.48,2.08c-1.55,0-2.66-1.63-3.31-4.88s-1-8.58-1-16q0-4.54.13-12.26.14-7.29.78-17.81c.11-1.82.19-3.26.24-4.29a83.16,83.16,0,0,1,.69-8.38,10.25,10.25,0,0,1,1.81-4.26,3.92,3.92,0,0,1,3.14-2,3,3,0,0,1,2.78,1.93,9.47,9.47,0,0,1,.94,4.23,94.61,94.61,0,0,1-1.52,12.14q-.54,3.18-.91,7.59Z" transform="translate(-188.46 -298.44)"/>
    <path d="M620.37,376.32q-2.26,14.56-8.61,24.55t-12.66,10q-5,0-8.25-6.76t-3.25-16.59a88,88,0,0,1,5.95-31.62q6-15.57,14.44-15.57,5.79,0,9.37,7.88A45,45,0,0,1,621,367a74.42,74.42,0,0,1-.58,9.27Zm-17.58-19.68q-2.37,3.87-4.64,12.33a65.47,65.47,0,0,0-2.26,17,29.52,29.52,0,0,0,1,8.53c.69,2.24,1.59,3.36,2.72,3.36,2.8,0,5.7-3.05,8.73-9.15a45.64,45.64,0,0,0,4.53-20.54,32,32,0,0,0-1.47-10.55q-1.47-4.14-4.11-4.14t-4.5,3.17Z" transform="translate(-188.46 -298.44)"/>
    <path d="M630.82,347.43q3.28-35.79,4.72-42.39t5-6.6q2.78,0,2.77,9,0,6.15-2.77,25.58-1.45,9.58-3.52,29a70.37,70.37,0,0,1,9.15-16.62q4.95-6.35,8.84-6.35,3.18,0,5.3,5a30.37,30.37,0,0,1,2.11,11.8,83.08,83.08,0,0,1-8,36q-8,16.88-17,16.87a6.64,6.64,0,0,1-5-2.71,11.53,11.53,0,0,1-2.64-6.94,9.24,9.24,0,0,0-.51-3.05c-.24-.5-.5-1-.77-1.62a11.33,11.33,0,0,1-1-5.23q0-3.86,1-16.06Zm4,44.2Q636.24,396,638,396q3.18,0,7-5.39t6.73-15.16q2.85-9.76,2.86-16.24,0-6.17-1-6.17-5.39,0-12.07,14.48T634.81,391.63Z" transform="translate(-188.46 -298.44)"/>
    <path d="M699,355.9h0L699,356q-2,2-3.18,3.49-2.26,2.81-4.56,6a56.2,56.2,0,0,0-4,6.28,8,8,0,0,0-1.12,3.12q0,1.11,4,8.74a105.86,105.86,0,0,0,6.27,10.93q2.32,3.3,4.59,3.3l1.48-.07a1.48,1.48,0,0,1,1.31.91,5.9,5.9,0,0,1,.49,2.7,13.32,13.32,0,0,1-1.73,5.92,6.1,6.1,0,0,1-5.92,3.36q-2.46,0-5-3.33t-7.78-15c-2.79-6.27-4.32-9.4-4.56-9.4s-.63.74-1.42,2.24a22.8,22.8,0,0,0-1.56,3.42v.06a128.4,128.4,0,0,0-.57,13.51,15,15,0,0,1-1.34,6.79c-.89,1.74-2,2.61-3.26,2.61a3.42,3.42,0,0,1-3.11-2.08,8.77,8.77,0,0,1-1.12-4.21q0-2.24.84-9.83,1.63-14.76,2.74-39.16,1.08-19.49,1.9-30.41t1.45-14.31a14.5,14.5,0,0,1,2-5.42c.9-1.35,1.87-2,2.91-2s1.78.75,2.38,2.27A15,15,0,0,1,682,312q0,4.05-2.85,31.62l-.81,8.16h0q-1.49,18-1.52,20.79l10.38-17.31q7.93-14.13,11.66-14.13c2.39,0,3.59,1.77,3.59,5.29Q702.48,353,699,355.9Z" transform="translate(-188.46 -298.44)"/>
    <path d="M740.39,376.32q-2.26,14.56-8.61,24.55t-12.66,10q-5,0-8.26-6.76t-3.24-16.59a87.78,87.78,0,0,1,6-31.62q6-15.57,14.44-15.57,5.78,0,9.37,7.88T741,367a74.43,74.43,0,0,1-.57,9.27ZM722.8,356.64q-2.37,3.87-4.63,12.33a65.48,65.48,0,0,0-2.27,17,29.87,29.87,0,0,0,1,8.53q1,3.36,2.73,3.36,4.19,0,8.72-9.15a45.64,45.64,0,0,0,4.53-20.54,32,32,0,0,0-1.47-10.55q-1.47-4.14-4.11-4.14t-4.49,3.17Z" transform="translate(-188.46 -298.44)"/>
  </g>
</svg>
