<svg id="primeiraImagem" data-name="Camada 1" xmlns="http://www.w3.org/2000/svg" viewBox="0 0 916.65 716.6">
  <defs>
    <style>
      .cls-1 {
        fill: #ff6584;
      }

      .cls-2 {
        fill: #f7b733;
      }

      .cls-3 {
        fill: #3f3d56;
      }

      .cls-4 {
        fill: #f2f2f2;
      }

      .cls-5 {
        fill: #2f2e41;
      }

      .cls-6 {
        opacity: 0.1;
        isolation: isolate;
      }

      .cls-7 {
        fill: #a0616a;
      }

      .cls-8 {
        fill: #575a89;
      }

      #primeiraImagem{
        animation: movimento-cima-baixo 1.5s ease-in-out infinite alternate;
    }

    @keyframes movimento-cima-baixo{
        to{
            transform: translate(0px,20px);
        }
    }

    </style>
  </defs>
  <circle class="cls-1" cx="209.6" cy="306.9" r="55"/>
  <g id="avoresCima">
    <path id="arvoreCima" class="cls-2" d="M550.6,369.2c0,108.4-64.4,146.2-143.9,146.2S262.8,477.6,262.8,369.2,406.7,123,406.7,123,550.6,260.9,550.6,369.2Z"/>
    <polygon class="cls-3" points="401.5 498.8 403 408.2 464.3 296 403.2 393.9 403.9 353.1 446.1 272 404 342.4 404 342.4 405.2 269 450.5 204.4 405.4 257.5 406.2 123 401.5 301 401.9 293.7 355.8 223.2 401.1 307.8 396.8 389.7 396.7 387.5 343.7 313.4 396.5 395.2 396 405.4 395.9 405.6 396 406.4 385.1 614.3 399.6 614.3 401.4 506.9 454.1 425.3 401.5 498.8"/>
  </g>
  <path class="cls-3" d="M689.5,471.6c0,108.4-64.4,146.2-143.9,146.2S401.7,580,401.7,471.6,545.6,225.4,545.6,225.4,689.5,363.2,689.5,471.6Z"/>
  <polygon class="cls-4" points="540.3 601.2 541.8 510.5 603.1 398.3 542 496.3 542.7 455.5 585 374.3 542.9 444.7 542.9 444.7 544.1 371.4 589.3 306.7 544.2 359.8 545 225.3 540.3 403.4 540.7 396 494.7 325.6 540 410.1 535.7 492 535.5 489.9 482.5 415.7 535.4 497.6 534.8 507.8 534.7 507.9 534.8 508.8 523.9 716.6 538.4 716.6 540.2 609.3 593 527.7 540.3 601.2"/>
  <path class="cls-3" d="M418.9,471.6c0,108.4-64.4,146.2-143.9,146.2S131.1,580,131.1,471.6,275,225.3,275,225.3,418.9,363.2,418.9,471.6Z"/>
  <polygon class="cls-4" points="269.8 601.2 271.2 510.5 332.6 398.3 271.5 496.3 272.1 455.5 314.4 374.3 272.3 444.7 272.3 444.7 273.5 371.4 318.7 306.7 273.7 359.8 274.4 225.3 269.7 403.4 270.1 396 224.1 325.6 269.4 410.1 265.1 492 265 489.9 211.9 415.7 264.8 497.6 264.3 507.8 264.2 507.9 264.2 508.8 253.3 716.6 267.9 716.6 269.6 609.3 322.4 527.7 269.8 601.2"/>
  <path class="cls-5" d="M410.4,715.7c-164.3,0-297.5-133.2-297.5-297.5S246.1,120.7,410.4,120.7,707.9,253.9,707.9,418.2,574.69,715.67,410.4,715.7Zm0-592.7c-162.8,0-295.2,132.4-295.2,295.2S247.6,713.4,410.4,713.4,705.6,581,705.6,418.2,573.2,123,410.4,123Z"/>
  <polygon class="cls-4" points="653.6 587.9 653.6 714.6 167.2 714.6 167.2 587.9 410.4 461.3 410.9 461.5 653.6 587.9"/>
  <polygon class="cls-6" points="653.6 587.9 653.6 714.6 410.9 714.6 410.9 461.5 653.6 587.9"/>
  <polygon class="cls-3" points="188 648.2 181.9 649.8 181.9 633 188 631.1 188 648.2"/>
  <polygon class="cls-3" points="209.3 643.2 202.2 644.9 202.2 626.9 209.3 624.7 209.3 643.2"/>
  <polygon class="cls-3" points="232.6 637.1 224.5 639.1 224.5 619.9 232.6 617.3 232.6 637.1"/>
  <polygon class="cls-3" points="260.9 630 250.8 632.5 250.8 611.7 260.9 608.6 260.9 630"/>
  <polygon class="cls-3" points="295.4 620.9 283.2 623.9 283.2 601.6 295.4 597.8 295.4 620.9"/>
  <polygon class="cls-3" points="336.9 610.7 321.7 614.6 321.7 589.5 336.9 584.7 336.9 610.7"/>
  <polygon class="cls-3" points="389.6 597.6 371.4 602.1 371.4 574.3 389.6 568.5 389.6 597.6"/>
  <polygon class="cls-3" points="389.6 655.3 371.4 657.6 371.4 630 389.6 626.5 389.6 655.3"/>
  <polygon class="cls-3" points="188 680.7 181.9 681.4 181.9 665.5 188 664.3 188 680.7"/>
  <polygon class="cls-3" points="209.3 678.6 202.2 679.5 202.2 662.4 209.3 661.1 209.3 678.6"/>
  <polygon class="cls-3" points="232.6 675.6 224.5 676.6 224.5 657.4 232.6 655.8 232.6 675.6"/>
  <polygon class="cls-3" points="260.9 671.5 250.8 672.8 250.8 652.3 260.9 650.4 260.9 671.5"/>
  <polygon class="cls-3" points="295.4 667.5 283.2 669 283.2 646.2 295.4 643.9 295.4 667.5"/>
  <polygon class="cls-3" points="336.9 662.4 321.7 664.3 321.7 639.1 336.9 636.2 336.9 662.4"/>
  <polygon class="cls-3" points="633.9 648.2 639.9 649.8 639.9 633 633.9 631.1 633.9 648.2"/>
  <polygon class="cls-3" points="612.6 643.2 619.7 644.9 619.7 626.9 612.6 624.7 612.6 643.2"/>
  <polygon class="cls-3" points="589.3 637.1 597.4 639.1 597.4 619.9 589.3 617.3 589.3 637.1"/>
  <polygon class="cls-3" points="560.9 630 571 632.5 571 611.7 560.9 608.6 560.9 630"/>
  <polygon class="cls-3" points="526.4 620.9 538.6 623.9 538.6 601.6 526.4 597.8 526.4 620.9"/>
  <polygon class="cls-3" points="484.9 610.7 500.1 614.6 500.1 589.5 484.9 584.7 484.9 610.7"/>
  <polygon class="cls-3" points="432.2 597.6 450.4 602.1 450.4 574.3 432.2 568.5 432.2 597.6"/>
  <polygon class="cls-3" points="432.2 655.3 450.4 657.6 450.4 630 432.2 626.5 432.2 655.3"/>
  <polygon class="cls-3" points="633.9 680.7 639.9 681.4 639.9 665.5 633.9 664.3 633.9 680.7"/>
  <polygon class="cls-3" points="612.6 678.6 619.7 679.5 619.7 662.4 612.6 661.1 612.6 678.6"/>
  <polygon class="cls-3" points="589.3 675.6 597.4 676.6 597.4 657.4 589.3 655.8 589.3 675.6"/>
  <polygon class="cls-3" points="560.9 671.5 571 672.8 571 652.3 560.9 650.4 560.9 671.5"/>
  <polygon class="cls-3" points="526.4 667.5 538.6 669 538.6 646.2 526.4 643.9 526.4 667.5"/>
  <polygon class="cls-3" points="484.9 662.4 500.1 664.3 500.1 639.1 484.9 636.2 484.9 662.4"/>
  <g id="janelasCima">
    <polygon class="cls-3" points="389.6 538.8 371.4 545.7 371.4 518.5 389.6 510.5 389.6 538.8"/>
    <polygon class="cls-3" points="188 614.8 181.9 617.1 181.9 600.6 188 597.9 188 614.8"/>
    <polygon class="cls-3" points="209.3 607.7 202.2 610.4 202.2 592.5 209.3 589.4 209.3 607.7"/>
    <polygon class="cls-3" points="232.6 598.6 224.5 601.6 224.5 582.4 232.6 578.8 232.6 598.6"/>
    <polygon class="cls-3" points="260.9 587.4 250.8 591.3 250.8 571.2 260.9 566.8 260.9 587.4"/>
    <polygon class="cls-3" points="295.4 574.3 283.2 578.8 283.2 557 295.4 551.7 295.4 574.3"/>
    <polygon class="cls-3" points="336.9 559.1 322.8 564.4 322.8 539.8 336.9 533.6 336.9 559.1"/>
    <polygon class="cls-3" points="633.9 614.8 639.9 617.1 639.9 600.6 633.9 597.9 633.9 614.8"/>
    <polygon class="cls-3" points="612.6 607.7 619.7 610.4 619.7 592.5 612.6 589.4 612.6 607.7"/>
    <polygon class="cls-3" points="589.3 598.6 597.4 601.6 597.4 582.4 589.3 578.8 589.3 598.6"/>
    <polygon class="cls-3" points="560.9 587.4 571 591.3 571 571.2 560.9 566.8 560.9 587.4"/>
    <polygon class="cls-3" points="526.4 574.3 538.6 578.8 538.6 557 526.4 551.7 526.4 574.3"/>
    <polygon class="cls-3" points="484.9 559.1 499.1 564.4 499.1 539.8 484.9 533.6 484.9 559.1"/>
    <polygon class="cls-3" points="449.4 545.9 431.2 539 431.2 510.4 449.4 518.4 449.4 545.9"/>
  </g>
  <rect class="cls-5" x="619.2" y="692" width="1.5" height="23.8"/>
  <rect class="cls-5" x="637.2" y="698.5" width="1.1" height="16.9"/>
  <rect class="cls-5" x="652.9" y="700.6" width="0.9" height="14.8"/>
  <polygon class="cls-3" points="577.1 684.5 577.1 715.1 557.4 715.1 537.6 715.1 537.6 680.7 557.4 682.6 577.1 684.5"/>
  <polygon class="cls-3" points="244.7 715.1 284.3 715 284.3 680.7 244.7 684.5 244.7 715.1"/>
  <rect class="cls-5" y="714.1" width="885.5" height="2"/>
  <polygon class="cls-6" points="577.1 684.5 577.1 715.1 557.4 715.1 557.4 682.6 577.1 684.5"/>
  <rect class="cls-5" x="406.4" y="687.2" width="2" height="28.4"/>
  <rect class="cls-5" x="168.7" y="696.3" width="1.2" height="16.9"/>
  <g id="arvoresBaixo">
    <path class="cls-2" d="M419.1,677.1c0,9.9-5.3,18.2-11.7,18.5-6.2.3-11.1-7.2-11.1-16.6s12.1-35.4,12.1-35.4S419.1,667.2,419.1,677.1Z"/>
    <path id="um" class="cls-2" d="M176.3,690.3c0,5.9-3.2,10.9-7,11s-6.6-4.3-6.6-9.9,7.2-21.1,7.2-21.1S176.3,684.4,176.3,690.3Z"/>
    <path class="cls-2" d="M628.1,693c0,5.6-3.6,10-8.2,9.8-4.9-.2-9.1-5.5-9.1-11.8s9.1-22,9.1-22S628.1,687.3,628.1,693Z"/>
    <path class="cls-2" d="M643.5,699.2c0,4-2.5,7.1-5.8,7-3.5-.2-6.5-3.9-6.5-8.4s6.5-15.6,6.5-15.6S643.5,695.2,643.5,699.2Z"/>
    <path class="cls-2" d="M658.4,701.2c0,3.5-2.2,6.3-5.1,6.1-3.1-.1-5.7-3.4-5.7-7.4s5.7-13.7,5.7-13.7S658.4,697.7,658.4,701.2Z"/>
  </g><!-- d="M176.3,690.3c0,5.9-3.2,10.9-7,11s-6.6-4.3-6.6-9.9,7.2-21.1,7.2-21.1S176.3,684.4,176.3,690.3Z" -->
  <!-- d="M176.3,690.3c0,5.9-3.2,10.9-7,11s-6.6-4.3-6.6-9.9,12.55-19.63,12.55-19.63S176.3,684.4,176.3,690.3Z" -->
  <g id="mulher">
    <path class="cls-7" d="M661.1,151.6s-9.9,29.6-4.4,36.2-32.9-19.7-32.9-19.7L644.6,144Z"/>
    <circle class="cls-5" cx="638.6" cy="102.4" r="49.2"/>
    <polygon class="cls-7" points="829.9 484.8 804.7 504.5 790.4 481.5 815.6 464 829.9 484.8"/>
    <path class="cls-5" d="M794.3,633.3l6.6,31.8,18.6,25.2s50.4,15.3,16.4,23-41.6-5.5-41.6-5.5L770.2,687v28.5H754.9l-3.3-40.6s-2.2-12.1,7.7-25.2l2.2-19.7Z"/>
    <path class="cls-7" d="M667.1,239.8l8.8,50.4s93.2-9.9,99.7,8.8,8.8,24.1,8.8,24.1l-18.6,6.6L757,313.3a20.81,20.81,0,0,0-16.4,1.1c-8.8,4.4-85.5,15.3-91,1.1s-20.8-66.9-20.8-66.9l23-18.6Z"/>
    <path class="cls-6" d="M667.1,239.8l8.8,50.4s93.2-9.9,99.7,8.8,8.8,24.1,8.8,24.1l-18.6,6.6L757,313.3a20.81,20.81,0,0,0-16.4,1.1c-8.8,4.4-85.5,15.3-91,1.1s-20.8-66.9-20.8-66.9l23-18.6Z"/>
    <path class="cls-5" d="M718.6,385.6l7.7,26.3L746,512.7s2.2,74.5,5.5,83.3,3.3,9.9,0,13.2-9.9,14.2,0,20.8,44.9,14.2,46,6.6,1.1-19.7,0-25.2,3.3-91,3.3-91L787.6,390l-44.9-20.8Z"/>
    <path class="cls-6" d="M718.6,385.6l7.7,26.3L746,512.7s2.2,74.5,5.5,83.3,3.3,9.9,0,13.2-9.9,14.2,0,20.8,44.9,14.2,46,6.6,1.1-19.7,0-25.2,3.3-91,3.3-91L787.6,390l-44.9-20.8Z"/>
    <path class="cls-5" d="M765.8,282.6l24.1,46S928,390,915.9,415.2,837,487.5,837,487.5s-3.3,18.6-13.2,13.2-34-34-31.8-37.3,9.9-11,13.2-9.9S846.8,425,846.8,425L781,408.6s-78.9-2.2-83.3-39.5,0-43.8,0-43.8l-5.5-12.1,44.9-27.4Z"/>
    <path class="cls-5" d="M799.7,464.5l-23,20.8s-19.7-8.8-31.8-5.5-32.9,5.5-32.9,5.5l3.3,18.6,28-5.2-22.5,31.5s0,49.3,14.2,49.3,9.9-29.6,9.9-29.6l43.8-34s21.9-8.8,24.1-8.8S799.7,464.5,799.7,464.5Z"/>
    <circle class="cls-7" cx="656.7" cy="123.1" r="37.3"/>
    <path class="cls-8" d="M620,152.2s17.5-4.4,23,0,6.6,14.2,14.2,15.3,14.2,1.1,15.3,2.2,26.3,31.8,26.3,31.8,15.3,8.8,18.6,20.8,36.2,52.6,40.6,57-28.5,26.3-39.5,34-42.7,11-52.6-6.6S602.5,175.2,620,152.2Z"/>
    <path class="cls-7" d="M661.6,223.4l8.8,50.4s93.2-9.9,99.7,8.8,8.8,24.1,8.8,24.1l-18.6,6.6-8.8-16.4a20.81,20.81,0,0,0-16.4,1.1c-8.8,4.4-85.5,15.3-91,1.1s-20.8-66.9-20.8-66.9l23-18.6Z"/>
    <path class="cls-8" d="M640.7,156.8s26.4,55.7,24.2,71-9.9,4.4-9.9,4.4-9.9-15.3-14.2-6.6-9.9,20.8-14.2,19.7-28.5-82.2-15.3-89.9S640.7,156.8,640.7,156.8Z"/>
    <circle class="cls-5" cx="599.3" cy="49.2" r="49.2"/>
    <path class="cls-5" d="M542.8,78.3a49.16,49.16,0,0,0,68.64-11l.06-.08a51.21,51.21,0,0,0,7.3-14.8,49.24,49.24,0,1,1-97.86-11c0-.43.1-.87.16-1.3a43.44,43.44,0,0,1,1.7-7.9A49.5,49.5,0,0,0,542.8,78.3Z"/>
    <circle class="cls-5" cx="628.5" cy="110.6" r="36.1"/>
    <ellipse class="cls-5" cx="655.8" cy="97" rx="32" ry="25"/>
    <ellipse class="cls-7" cx="657.3" cy="126.9" rx="7.1" ry="12.6"/>
    <path class="cls-5" d="M755,312.8s19.4-11.1,23-8.3,5.2,11.5,5.2,11.5l-22.4,8.8-6.6-12.1Z"/>
  </g>
</svg>
