<?xml version="1.0" encoding="utf-8"?>
<!-- Generator: Adobe Illustrator 24.1.0, SVG Export Plug-In . SVG Version: 6.00 Build 0)  -->
<svg version="1.1" id="Camada_1" xmlns="http://www.w3.org/2000/svg" xmlns:xlink="http://www.w3.org/1999/xlink" x="0px" y="0px"
	 viewBox="0 0 921.2 727.9" style="enable-background:new 0 0 921.2 727.9;" xml:space="preserve">
<style type="text/css">
	.st0{fill:#FF6584;}
	.st1{fill:#F9A826;}
	.st2{fill:#3F3D56;}
	.st3{fill:#F2F2F2;}
	.st4{fill:#2F2E41;}
	.st5{opacity:0.1;enable-background:new    ;}
	.st6{fill:#A0616A;}
	.st7{fill:#575A89;}
</style>
<circle class="st0" cx="209.6" cy="318.2" r="55"/>
<g id="avoresCima">
	<path id="arvoreCima" class="st1" d="M550.6,380.5c0,108.4-64.4,146.2-143.9,146.2s-143.9-37.8-143.9-146.2
		s143.9-246.2,143.9-246.2S550.6,272.2,550.6,380.5z"/>
	<polygon class="st2" points="401.5,510.1 403,419.5 464.3,307.3 403.2,405.2 403.9,364.4 446.1,283.3 404,353.7 404,353.7 
		405.2,280.3 450.5,215.7 405.4,268.8 406.2,134.3 401.5,312.3 401.9,305 355.8,234.5 401.1,319.1 396.8,401 396.7,398.8 
		343.7,324.7 396.5,406.5 396,416.7 395.9,416.9 396,417.7 385.1,625.6 399.6,625.6 401.4,518.2 454.1,436.6 	"/>
</g>
<path class="st2" d="M689.5,482.9c0,108.4-64.4,146.2-143.9,146.2s-143.9-37.8-143.9-146.2s143.9-246.2,143.9-246.2
	S689.5,374.5,689.5,482.9z"/>
<polygon class="st3" points="540.3,612.5 541.8,521.8 603.1,409.6 542,507.6 542.7,466.8 585,385.6 542.9,456 542.9,456 
	544.1,382.7 589.3,318 544.2,371.1 545,236.6 540.3,414.7 540.7,407.3 494.7,336.9 540,421.4 535.7,503.3 535.5,501.2 482.5,427 
	535.4,508.9 534.8,519.1 534.7,519.2 534.8,520.1 523.9,727.9 538.4,727.9 540.2,620.6 593,539 "/>
<path class="st2" d="M418.9,482.9c0,108.4-64.4,146.2-143.9,146.2s-143.9-37.8-143.9-146.2S275,236.6,275,236.6
	S418.9,374.5,418.9,482.9z"/>
<polygon class="st3" points="269.8,612.5 271.2,521.8 332.6,409.6 271.5,507.6 272.1,466.8 314.4,385.6 272.3,456 272.3,456 
	273.5,382.7 318.7,318 273.7,371.1 274.4,236.6 269.7,414.7 270.1,407.3 224.1,336.9 269.4,421.4 265.1,503.3 265,501.2 211.9,427 
	264.8,508.9 264.3,519.1 264.2,519.2 264.2,520.1 253.3,727.9 267.9,727.9 269.6,620.6 322.4,539 "/>
<path class="st4" d="M410.4,727c-164.3,0-297.5-133.2-297.5-297.5c0-164.3,133.2-297.5,297.5-297.5s297.5,133.2,297.5,297.5
	c0,78.9-31.3,154.6-87.1,210.3C565.1,695.8,489.3,727.2,410.4,727z M410.4,134.3c-162.8,0-295.2,132.4-295.2,295.2
	s132.4,295.2,295.2,295.2s295.2-132.4,295.2-295.2S573.2,134.3,410.4,134.3L410.4,134.3z"/>
<polygon class="st3" points="653.6,599.2 653.6,725.9 167.2,725.9 167.2,599.2 410.4,472.6 410.9,472.8 "/>
<polygon class="st5" points="653.6,599.2 653.6,725.9 410.9,725.9 410.9,472.8 "/>
<polygon class="st2" points="188,659.5 181.9,661.1 181.9,644.3 188,642.4 "/>
<polygon class="st2" points="209.3,654.5 202.2,656.2 202.2,638.2 209.3,636 "/>
<polygon class="st2" points="232.6,648.4 224.5,650.4 224.5,631.2 232.6,628.6 "/>
<polygon class="st2" points="260.9,641.3 250.8,643.8 250.8,623 260.9,619.9 "/>
<polygon class="st2" points="295.4,632.2 283.2,635.2 283.2,612.9 295.4,609.1 "/>
<polygon class="st2" points="336.9,622 321.7,625.9 321.7,600.8 336.9,596 "/>
<polygon class="st2" points="389.6,608.9 371.4,613.4 371.4,585.6 389.6,579.8 "/>
<polygon class="st2" points="389.6,666.6 371.4,668.9 371.4,641.3 389.6,637.8 "/>
<polygon class="st2" points="188,692 181.9,692.7 181.9,676.8 188,675.6 "/>
<polygon class="st2" points="209.3,689.9 202.2,690.8 202.2,673.7 209.3,672.4 "/>
<polygon class="st2" points="232.6,686.9 224.5,687.9 224.5,668.7 232.6,667.1 "/>
<polygon class="st2" points="260.9,682.8 250.8,684.1 250.8,663.6 260.9,661.7 "/>
<polygon class="st2" points="295.4,678.8 283.2,680.3 283.2,657.5 295.4,655.2 "/>
<polygon class="st2" points="336.9,673.7 321.7,675.6 321.7,650.4 336.9,647.5 "/>
<polygon class="st2" points="633.9,659.5 639.9,661.1 639.9,644.3 633.9,642.4 "/>
<polygon class="st2" points="612.6,654.5 619.7,656.2 619.7,638.2 612.6,636 "/>
<polygon class="st2" points="589.3,648.4 597.4,650.4 597.4,631.2 589.3,628.6 "/>
<polygon class="st2" points="560.9,641.3 571,643.8 571,623 560.9,619.9 "/>
<polygon class="st2" points="526.4,632.2 538.6,635.2 538.6,612.9 526.4,609.1 "/>
<polygon class="st2" points="484.9,622 500.1,625.9 500.1,600.8 484.9,596 "/>
<polygon class="st2" points="432.2,608.9 450.4,613.4 450.4,585.6 432.2,579.8 "/>
<polygon class="st2" points="432.2,666.6 450.4,668.9 450.4,641.3 432.2,637.8 "/>
<polygon class="st2" points="633.9,692 639.9,692.7 639.9,676.8 633.9,675.6 "/>
<polygon class="st2" points="612.6,689.9 619.7,690.8 619.7,673.7 612.6,672.4 "/>
<polygon class="st2" points="589.3,686.9 597.4,687.9 597.4,668.7 589.3,667.1 "/>
<polygon class="st2" points="560.9,682.8 571,684.1 571,663.6 560.9,661.7 "/>
<polygon class="st2" points="526.4,678.8 538.6,680.3 538.6,657.5 526.4,655.2 "/>
<polygon class="st2" points="484.9,673.7 500.1,675.6 500.1,650.4 484.9,647.5 "/>
<g id="janelasCima">
	<polygon class="st2" points="389.6,550.1 371.4,557 371.4,529.8 389.6,521.8 	"/>
	<polygon class="st2" points="188,626.1 181.9,628.4 181.9,611.9 188,609.2 	"/>
	<polygon class="st2" points="209.3,619 202.2,621.7 202.2,603.8 209.3,600.7 	"/>
	<polygon class="st2" points="232.6,609.9 224.5,612.9 224.5,593.7 232.6,590.1 	"/>
	<polygon class="st2" points="260.9,598.7 250.8,602.6 250.8,582.5 260.9,578.1 	"/>
	<polygon class="st2" points="295.4,585.6 283.2,590.1 283.2,568.3 295.4,563 	"/>
	<polygon class="st2" points="336.9,570.4 322.8,575.7 322.8,551.1 336.9,544.9 	"/>
	<polygon class="st2" points="633.9,626.1 639.9,628.4 639.9,611.9 633.9,609.2 	"/>
	<polygon class="st2" points="612.6,619 619.7,621.7 619.7,603.8 612.6,600.7 	"/>
	<polygon class="st2" points="589.3,609.9 597.4,612.9 597.4,593.7 589.3,590.1 	"/>
	<polygon class="st2" points="560.9,598.7 571,602.6 571,582.5 560.9,578.1 	"/>
	<polygon class="st2" points="526.4,585.6 538.6,590.1 538.6,568.3 526.4,563 	"/>
	<polygon class="st2" points="484.9,570.4 499.1,575.7 499.1,551.1 484.9,544.9 	"/>
	<polygon class="st2" points="449.4,557.2 431.2,550.3 431.2,521.7 449.4,529.7 	"/>
</g>
<rect x="619.2" y="703.3" class="st4" width="1.5" height="23.8"/>
<rect x="637.2" y="709.8" class="st4" width="1.1" height="16.9"/>
<rect x="652.9" y="711.9" class="st4" width="0.9" height="14.8"/>
<polygon class="st2" points="577.1,695.8 577.1,726.4 557.4,726.4 537.6,726.4 537.6,692 557.4,693.9 "/>
<polygon class="st2" points="244.7,726.4 284.3,726.3 284.3,692 244.7,695.8 "/>
<rect y="725.4" class="st4" width="885.5" height="2"/>
<polygon class="st5" points="577.1,695.8 577.1,726.4 557.4,726.4 557.4,693.9 "/>
<rect x="406.4" y="698.5" class="st4" width="2" height="28.4"/>
<rect x="168.7" y="707.6" class="st4" width="1.2" height="16.9"/>
<g id="arvoresBaixo">
	<path class="st1" d="M419.1,688.4c0,9.9-5.3,18.2-11.7,18.5c-6.2,0.3-11.1-7.2-11.1-16.6s12.1-35.4,12.1-35.4
		S419.1,678.5,419.1,688.4z"/>
	<path class="st1" d="M176.3,701.6c0,5.9-3.2,10.9-7,11c-3.7,0.2-6.6-4.3-6.6-9.9c0-5.6,7.2-21.1,7.2-21.1S176.3,695.7,176.3,701.6z
		"/>
	<path class="st1" d="M628.1,704.3c0,5.6-3.6,10-8.2,9.8c-4.9-0.2-9.1-5.5-9.1-11.8s9.1-22,9.1-22S628.1,698.6,628.1,704.3z"/>
	<path class="st1" d="M643.5,710.5c0,4-2.5,7.1-5.8,7c-3.5-0.2-6.5-3.9-6.5-8.4c0-4.5,6.5-15.6,6.5-15.6S643.5,706.5,643.5,710.5z"
		/>
	<path class="st1" d="M658.4,712.5c0,3.5-2.2,6.3-5.1,6.1c-3.1-0.1-5.7-3.4-5.7-7.4s5.7-13.7,5.7-13.7S658.4,709,658.4,712.5z"/>
</g>
<g id="mulher">
	<path class="st6" d="M661.1,162.9c0,0-9.9,29.6-4.4,36.2s-32.9-19.7-32.9-19.7l20.8-24.1L661.1,162.9z"/>
	<circle class="st4" cx="638.6" cy="113.7" r="49.2"/>
	<polygon class="st6" points="829.9,496.1 804.7,515.8 790.4,492.8 815.6,475.3 	"/>
	<path class="st4" d="M794.3,644.6l6.6,31.8l18.6,25.2c0,0,50.4,15.3,16.4,23s-41.6-5.5-41.6-5.5l-24.1-20.8v28.5h-15.3l-3.3-40.6
		c0,0-2.2-12.1,7.7-25.2l2.2-19.7L794.3,644.6z"/>
	<path class="st6" d="M667.1,251.1l8.8,50.4c0,0,93.2-9.9,99.7,8.8s8.8,24.1,8.8,24.1l-18.6,6.6l-8.8-16.4
		c-5.4-1.9-11.3-1.5-16.4,1.1c-8.8,4.4-85.5,15.3-91,1.1s-20.8-66.9-20.8-66.9l23-18.6L667.1,251.1z"/>
	<path class="st5" d="M667.1,251.1l8.8,50.4c0,0,93.2-9.9,99.7,8.8s8.8,24.1,8.8,24.1l-18.6,6.6l-8.8-16.4
		c-5.4-1.9-11.3-1.5-16.4,1.1c-8.8,4.4-85.5,15.3-91,1.1s-20.8-66.9-20.8-66.9l23-18.6L667.1,251.1z"/>
	<path class="st4" d="M718.6,396.9l7.7,26.3L746,524c0,0,2.2,74.5,5.5,83.3s3.3,9.9,0,13.2s-9.9,14.2,0,20.8s44.9,14.2,46,6.6
		s1.1-19.7,0-25.2s3.3-91,3.3-91l-13.2-130.4l-44.9-20.8L718.6,396.9z"/>
	<path class="st5" d="M718.6,396.9l7.7,26.3L746,524c0,0,2.2,74.5,5.5,83.3s3.3,9.9,0,13.2s-9.9,14.2,0,20.8s44.9,14.2,46,6.6
		s1.1-19.7,0-25.2s3.3-91,3.3-91l-13.2-130.4l-44.9-20.8L718.6,396.9z"/>
	<path class="st4" d="M765.8,293.9l24.1,46c0,0,138.1,61.4,126,86.6c-12.1,25.2-78.9,72.3-78.9,72.3s-3.3,18.6-13.2,13.2
		c-9.9-5.5-34-34-31.8-37.3s9.9-11,13.2-9.9s41.6-28.5,41.6-28.5l-65.8-16.4c0,0-78.9-2.2-83.3-39.5s0-43.8,0-43.8l-5.5-12.1
		l44.9-27.4L765.8,293.9z"/>
	<path class="st4" d="M799.7,475.8l-23,20.8c0,0-19.7-8.8-31.8-5.5s-32.9,5.5-32.9,5.5l3.3,18.6l28-5.2l-22.5,31.5
		c0,0,0,49.3,14.2,49.3s9.9-29.6,9.9-29.6l43.8-34c0,0,21.9-8.8,24.1-8.8S799.7,475.8,799.7,475.8z"/>
	<circle class="st6" cx="656.7" cy="134.4" r="37.3"/>
	<path class="st7" d="M620,163.5c0,0,17.5-4.4,23,0s6.6,14.2,14.2,15.3s14.2,1.1,15.3,2.2s26.3,31.8,26.3,31.8s15.3,8.8,18.6,20.8
		s36.2,52.6,40.6,57s-28.5,26.3-39.5,34s-42.7,11-52.6-6.6S602.5,186.5,620,163.5z"/>
	<path class="st6" d="M661.6,234.7l8.8,50.4c0,0,93.2-9.9,99.7,8.8s8.8,24.1,8.8,24.1l-18.6,6.6l-8.8-16.4
		c-5.4-1.9-11.3-1.5-16.4,1.1c-8.8,4.4-85.5,15.3-91,1.1s-20.8-66.9-20.8-66.9l23-18.6L661.6,234.7z"/>
	<path class="st7" d="M640.7,168.1c0,0,26.4,55.7,24.2,71s-9.9,4.4-9.9,4.4s-9.9-15.3-14.2-6.6s-9.9,20.8-14.2,19.7
		c-4.4-1.1-28.5-82.2-15.3-89.9S640.7,168.1,640.7,168.1z"/>
	<circle class="st4" cx="599.3" cy="60.5" r="49.2"/>
	<path class="st4" d="M542.8,89.6c22,15.9,52.8,11,68.7-11.1c3.2-4.5,5.7-9.5,7.3-14.8c-3.4,27-28,46.1-55,42.7s-46.1-28-42.7-55
		c0.3-2.7,0.9-5.3,1.7-7.9C520.6,61.4,528.3,79.1,542.8,89.6z"/>
	<circle class="st4" cx="628.5" cy="121.9" r="36.1"/>
	<ellipse class="st4" cx="655.8" cy="108.3" rx="32" ry="25"/>
	<ellipse class="st6" cx="657.3" cy="138.2" rx="7.1" ry="12.6"/>
	<path class="st4" d="M755,324.1c0,0,19.4-11.1,23-8.3s5.2,11.5,5.2,11.5l-22.4,8.8l-6.6-12.1L755,324.1z"/>
</g>
</svg>
